<?xml version="1.0" encoding="utf-8"?>
<!-- Generator: Adobe Illustrator 15.0.0, SVG Export Plug-In  -->
<!DOCTYPE svg PUBLIC "-//W3C//DTD SVG 1.1//EN" "http://www.w3.org/Graphics/SVG/1.1/DTD/svg11.dtd" [
	<!ENTITY ns_flows "http://ns.adobe.com/Flows/1.0/">
]>
<svg version="1.1"
	 xmlns="http://www.w3.org/2000/svg" xmlns:xlink="http://www.w3.org/1999/xlink" xmlns:a="http://ns.adobe.com/AdobeSVGViewerExtensions/3.0/"
	 x="0px" y="0px" width="551px" height="909px" viewBox="-1.087 -0.205 551 909"
	 overflow="visible" enable-background="new -1.087 -0.205 551 909" xml:space="preserve">
<defs>
	<symbol  id="club" viewBox="-172.115 -54.3 344.23 108.6">
		<g>
			<polygon fill="none" points="132.865,34.57 113.085,34.57 113.085,5.08 142.675,5.08 142.675,14.84 152.485,14.84 152.485,34.57 
				132.865,34.57 			"/>
			<polygon fill="none" points="132.865,-14.65 113.085,-14.65 113.085,-34.57 152.485,-34.57 152.485,-14.65 132.865,-14.65 			"/>
			<path d="M162.306,44.53v9.77H93.455V-54.3h68.851v9.96h9.81v39.46h-9.81v9.96h9.81v39.45H162.306L162.306,44.53z M152.485,24.811
				V14.84h-9.811V5.08h-29.59v29.49h39.4V24.811L152.485,24.811z M152.485-24.609v-9.961h-39.4v19.92h39.4V-24.609L152.485-24.609z"
				/>
			<polygon points="73.825,-24.609 73.825,54.3 54.056,54.3 54.056,-34.57 24.604,-34.57 24.604,-24.609 14.795,-24.609 
				14.795,54.3 -4.835,54.3 -4.835,-34.57 4.976,-34.57 4.976,-44.34 14.795,-44.34 14.795,-54.3 54.056,-54.3 54.056,-44.34 
				64.015,-44.34 64.015,-54.3 83.646,-54.3 83.646,-34.57 73.825,-34.57 73.825,-24.609 			"/>
			<polygon points="-14.795,-34.57 -63.865,-34.57 -63.865,54.3 -83.645,54.3 -83.645,-54.3 -4.835,-54.3 -4.835,-44.34 
				-14.795,-44.34 -14.795,-34.57 			"/>
			<polygon points="-103.275,54.3 -152.495,54.3 -152.495,44.53 -162.305,44.53 -162.305,34.57 -172.115,34.57 -172.115,-34.57 
				-162.305,-34.57 -162.305,-44.34 -152.495,-44.34 -152.495,-54.3 -103.275,-54.3 -103.275,-44.34 -93.455,-44.34 -93.455,-34.57 
				-142.525,-34.57 -142.525,-24.609 -152.495,-24.609 -152.495,34.57 -113.085,34.57 -113.085,24.811 -93.455,24.811 
				-93.455,44.53 -103.275,44.53 -103.275,54.3 			"/>
		</g>
	</symbol>
	<symbol  id="hack" viewBox="-172.115 -54.295 344.23 108.59">
		<g>
			<polygon fill="none" points="-44.235,34.575 -63.865,34.575 -63.865,4.885 -24.605,4.885 -24.605,34.575 -44.235,34.575 			"/>
			<polygon points="162.306,54.295 152.485,54.295 152.485,34.575 142.675,34.575 142.675,24.805 132.865,24.805 132.865,14.845 
				122.896,14.845 122.896,4.885 113.085,4.885 113.085,54.295 93.455,54.295 93.455,-54.295 113.085,-54.295 113.085,-14.845 
				132.865,-14.845 132.865,-24.605 142.675,-24.605 142.675,-34.565 152.485,-34.565 152.485,-54.295 172.115,-54.295 
				172.115,-24.605 162.306,-24.605 162.306,-14.845 152.485,-14.845 152.485,-4.885 142.675,-4.885 142.675,4.885 152.485,4.885 
				152.485,14.845 162.306,14.845 162.306,24.805 172.115,24.805 172.115,54.295 162.306,54.295 			"/>
			<polygon points="73.825,54.295 24.604,54.295 24.604,44.535 14.795,44.535 14.795,34.575 4.976,34.575 4.976,-34.565 
				14.795,-34.565 14.795,-44.335 24.604,-44.335 24.604,-54.295 73.825,-54.295 73.825,-44.335 83.646,-44.335 83.646,-34.565 
				34.425,-34.565 34.425,-24.605 24.604,-24.605 24.604,34.575 64.015,34.575 64.015,24.805 83.646,24.805 83.646,44.535 
				73.825,44.535 73.825,54.295 			"/>
			<path d="M-14.795,44.535h-9.81v9.76h-39.26v-9.76h-9.82v-9.96h-9.96v-88.87h19.78v39.45h39.26v-39.45h19.77v88.87h-9.96V44.535
				L-14.795,44.535z M-24.605,24.805V4.885h-39.26v29.69h39.26V24.805L-24.605,24.805z"/>
			<polygon points="-113.085,54.295 -113.085,4.885 -152.495,4.885 -152.495,54.295 -172.115,54.295 -172.115,-54.295 
				-152.495,-54.295 -152.495,-14.845 -113.085,-14.845 -113.085,-54.295 -93.455,-54.295 -93.455,54.295 -113.085,54.295 			"/>
		</g>
	</symbol>
	<symbol  id="noTopBanner_1" viewBox="-275.39 -454.295 550.779 908.59">
		<g id="bannerlarger_2_">
			<g>
				<polygon id="color_1_" fill="#FFFFFF" points="-255.76,454.295 255.76,454.295 255.76,-316.015 0,-444.335 -255.76,-316.015 
									"/>
				<polygon points="265.58,454.295 255.76,454.295 255.76,-306.055 245.95,-306.055 245.95,-316.015 226.17,-316.015 
					226.17,-325.774 206.54,-325.774 206.54,-335.744 186.91,-335.744 186.91,-345.505 167.14,-345.505 167.14,-355.465 
					147.51,-355.465 147.51,-365.234 127.88,-365.234 127.88,-375.194 108.101,-375.194 108.101,-385.154 88.48,-385.154 
					88.48,-394.925 68.851,-394.925 68.851,-404.885 49.22,-404.885 49.22,-414.645 29.44,-414.645 29.44,-424.604 9.811,-424.604 
					9.811,-434.375 -9.82,-434.375 -9.82,-424.604 -29.59,-424.604 -29.59,-414.645 -49.22,-414.645 -49.22,-404.885 
					-68.85,-404.885 -68.85,-394.925 -88.48,-394.925 -88.48,-385.154 -108.25,-385.154 -108.25,-375.194 -127.88,-375.194 
					-127.88,-365.234 -147.51,-365.234 -147.51,-355.465 -167.29,-355.465 -167.29,-345.505 -186.91,-345.505 -186.91,-335.744 
					-206.54,-335.744 -206.54,-325.774 -226.32,-325.774 -226.32,-316.015 -245.95,-316.015 -245.95,-306.055 -255.76,-306.055 
					-255.76,454.295 -275.39,454.295 -275.39,-325.774 -255.76,-325.774 -255.76,-335.744 -236.13,-335.744 -236.13,-345.505 
					-216.36,-345.505 -216.36,-355.465 -196.73,-355.465 -196.73,-365.234 -177.1,-365.234 -177.1,-375.194 -157.32,-375.194 
					-157.32,-385.154 -137.7,-385.154 -137.7,-394.925 -118.07,-394.925 -118.07,-404.885 -98.44,-404.885 -98.44,-414.645 
					-78.66,-414.645 -78.66,-424.604 -59.03,-424.604 -59.03,-434.375 -39.4,-434.375 -39.4,-444.335 -19.63,-444.335 
					-19.63,-454.295 19.63,-454.295 19.63,-444.335 39.26,-444.335 39.26,-434.375 59.03,-434.375 59.03,-424.604 78.66,-424.604 
					78.66,-414.645 98.29,-414.645 98.29,-404.885 118.07,-404.885 118.07,-394.925 137.69,-394.925 137.69,-385.154 
					157.32,-385.154 157.32,-375.194 177.101,-375.194 177.101,-365.234 196.73,-365.234 196.73,-355.465 216.36,-355.465 
					216.36,-345.505 235.99,-345.505 235.99,-335.744 255.76,-335.744 255.76,-325.774 275.39,-325.774 275.39,454.295 
					265.58,454.295 				"/>
			</g>
		</g>
	</symbol>
	<symbol  id="orpheus" viewBox="-162.305 -177.834 324.61 355.668">
		<g>
			<polygon fill="none" points="4.975,39.555 14.795,39.555 14.795,59.274 4.975,59.274 4.975,39.555 			"/>
			<polygon fill="none" points="54.055,49.314 54.055,39.555 64.014,39.555 64.014,49.314 54.055,49.314 			"/>
			<polygon fill="none" points="-83.645,49.314 -83.645,59.274 -93.455,59.274 -93.455,39.555 -73.685,39.555 -73.685,49.314 
				-83.645,49.314 			"/>
			<polygon fill="none" points="-132.715,39.555 -132.715,49.314 -142.525,49.314 -142.525,39.555 -132.715,39.555 			"/>
			<polygon fill="none" points="-142.525,59.274 -132.715,59.274 -132.715,69.044 -142.525,69.044 -142.525,59.274 			"/>
			<path d="M152.485-0.096v79.1h-9.811v29.69h-9.809v19.721h-9.971v19.729H93.456v9.959H73.825v9.771h-19.77v9.959h-137.7v-9.959
				h-19.63v-9.771h-9.81v-9.959h-9.82v-9.96h-9.81v-9.77h-9.81v-19.721h-9.97v-39.65h-9.81V-9.865h9.81v-39.449h9.97v-9.961h9.81
				v-9.959h9.81v-9.771h19.63v-9.959h19.63v-9.76h9.96v-29.689h-9.96v-29.691h-9.81v-19.729h19.77v9.969h9.82v29.49h9.81v39.65
				h19.63v9.76h39.4v9.959h19.63v9.771h9.819v9.959h19.631v9.961h9.959v9.769h9.811v19.721h-19.77v-9.76h-9.82v-9.961h-19.63v-9.769
				h-9.81v-9.961h-19.63v-9.959h-29.59v-9.771h-49.22v9.771h-9.81v9.959h-19.63v9.961h-9.82v9.769h-9.81v29.681h-9.81v39.46h68.84
				v9.96h-19.77v19.72h9.81v-9.96h9.96v-9.76h9.82v19.72h-9.82v9.77h-59.03v-9.77h-9.81v9.77h9.81v39.65h9.81v9.761h9.82v19.729
				h19.63v9.96h9.81v9.959h137.7v-9.959h19.77v-9.96h19.631v-9.77h19.629v-19.721h9.811v-39.65h9.971v-69.14h9.809v-177.738h19.631
				V-0.096H152.485L152.485-0.096z M-132.715,49.314v-9.76h-9.81v9.76H-132.715L-132.715,49.314z"/>
			<path d="M64.014,59.274v9.77H4.975v-9.77h9.82v-19.72h-9.82v19.72h-19.77v-19.72h9.96v-9.96h78.66v9.96h9.82v19.72H64.014
				L64.014,59.274z M54.055,39.555v9.76h9.959v-9.76H54.055L54.055,39.555z"/>
		</g>
	</symbol>
</defs>
<use xlink:href="#noTopBanner_1"  width="550.779" height="908.59" id="XMLID_8_" x="-275.39" y="-454.295" transform="matrix(1 0 0 -1 275.3896 454.2949)" overflow="visible"/>
<use xlink:href="#hack"  width="344.23" height="108.59" id="XMLID_7_" x="-172.115" y="-54.295" transform="matrix(1 0 0 -1 270.4141 144.8657)" overflow="visible"/>
<use xlink:href="#club"  width="344.23" height="108.6" id="XMLID_4_" x="-172.115" y="-54.3" transform="matrix(1 0 0 -1 270.4141 679.9824)" overflow="visible"/>
<use xlink:href="#orpheus"  width="324.61" height="355.668" id="XMLID_1_" x="-162.305" y="-177.834" transform="matrix(1 0 0 -1 270.4146 412.4229)" overflow="visible"/>
</svg>
